<?xml version="1.0" standalone="yes"?>
<svg xmlns="http://www.w3.org/2000/svg" width="225" height="225">
<path style="fill:#fefdf0; stroke:none;" d="M0 0L0 84L1 84C11.1035 57.7715 24.1988 32.1043 49.2847 16.9336C61.0346 9.82793 73.3019 5.86057 86 1L59 0L0 0z"/>
<path style="fill:#feef9e; stroke:none;" d="M86 0.724548C44.7432 12.0865 12.1422 42.1648 0.634259 84C-1.6938 92.4633 0 103.257 0 112C0 121.142 -1.6371 132.108 0.608796 141C13.0541 190.274 56.8967 225 107 225C118.183 225 131.122 226.778 142 223.91C181.22 213.568 213.764 180.235 223.525 141C236.757 87.8104 208.351 27.5632 157 7.2037C143.487 1.84622 132.45 0 118 0C108.007 0 95.6656 -1.93732 86 0.724548z"/>
<path style="fill:#fefdf0; stroke:none;" d="M138 0L138 1C175.996 11.7863 221.98 46.4185 224 90L225 90L225 0L138 0z"/>
<path style="fill:#fadd61; stroke:none;" d="M93 24L93 25L102 24L93 24z"/>
<path style="fill:#f4cd2c; stroke:none;" d="M102 23L102 24L128 25L102 23z"/>
<path style="fill:#fadd61; stroke:none;" d="M123 23L123 24L128 24L123 23z"/>
<path style="fill:#f4cd2c; stroke:none;" d="M96 24L96 25L101 25L96 24z"/>
<path style="fill:#fecd11; stroke:none;" d="M101 24.4282C89.095 26.1338 78.6766 30.9506 68 36.1358C27.0543 56.0215 12.6701 112.376 32.6188 151.83C49.5755 185.367 87.5122 206.116 125 200.7C178.574 192.959 215.351 131.882 195.081 81C184.717 54.9836 163.274 36.5631 137 28.2546C125.763 24.7012 112.883 22.7259 101 24.4282z"/>
<path style="fill:#fadd61; stroke:none;" d="M128 24L128 25L132 25L128 24M85 26L85 27L91 26L85 26z"/>
<path style="fill:#f4cd2c; stroke:none;" d="M91 25L91 26L95 26L91 25M129 25L129 26C145.788 30.1841 164.529 38.6882 175.999 52.1289C183.249 60.6242 187.883 73.9118 196 81C184.891 53.9214 159.791 27.6849 129 25z"/>
<path style="fill:#fadd61; stroke:none;" d="M133 25L133 26L136 26L133 25z"/>
<path style="fill:#f4cd2c; stroke:none;" d="M41 58L63 39.1427L91 27C85.8939 25.4494 79.6301 28.6954 75 30.8372C61.8734 36.9093 49.0646 45.8082 41 58z"/>
<path style="fill:#fadd61; stroke:none;" d="M136 26L136 27L139 27L136 26M82.6667 27.3333L83.3333 27.6667L82.6667 27.3333M140.667 27.3333L141.333 27.6667L140.667 27.3333M79 28L80 29L79 28M77.6667 29.3333L78.3333 29.6667L77.6667 29.3333M145.667 29.3333L146.333 29.6667L145.667 29.3333M74.6667 30.3333L75.3333 30.6667L74.6667 30.3333M147.667 30.3333L148.333 30.6667L147.667 30.3333M73 31L74 32L73 31M150 31L151 32L150 31M70.6667 32.3333L71.3333 32.6667L70.6667 32.3333M152 32L153 33L152 32M69 33L70 34L69 33M154 33L155 34L154 33M67 34L68 35L67 34M156 34L157 35L156 34M65.6667 35.3333L66.3333 35.6667L65.6667 35.3333M158 35L159 36L158 35M63 36L64 37L63 36M159.667 36.3333L160.333 36.6667L159.667 36.3333M62 37L63 38L62 37M161 37L162 38L161 37M60.6667 38.3333L61.3333 38.6667L60.6667 38.3333z"/>
<path style="fill:#f4cd2c; stroke:none;" d="M78 38L79 39L78 38z"/>
<path style="fill:#fadd61; stroke:none;" d="M162.667 38.3333L163.333 38.6667L162.667 38.3333M59 39L60 40L59 39M164 39L165 40L164 39M58 40L59 41L58 40M165 40L166 41L165 40M56.6667 41.3333L57.3333 41.6667L56.6667 41.3333M166 41L167 42L166 41M55 42L56 43L55 42M167 42L168 43L167 42M54 43L55 44L54 43M169 43L170 44L169 43M53 44L54 45L53 44M170 44L171 45L170 44M171 45L172 46L171 45M50.6667 46.3333L51.3333 46.6667L50.6667 46.3333M172.667 46.3333L173.333 46.6667L172.667 46.3333M49 47L50 48L49 47M174 47L175 48L174 47M48 48L49 49L48 48M175 48L176 49L175 48M47 49L48 50L47 49M176 49L177 50L176 49M46 50L47 51L46 50M177 50L178 51L177 50M45 51L46 52L45 51M44.3333 52.6667L44.6667 53.3333L44.3333 52.6667M178 52L179 53L178 52M179 53L180 54L179 53M43 54L44 55L43 54M180 54L181 55L180 54M42 55L43 56L42 55M181 55L182 56L181 55M41 56L42 57L41 56M182 56L183 57L182 56z"/>
<path style="fill:#f4cd2c; stroke:none;" d="M122 59L122 60C131.331 59.8146 132.801 60.8979 135 70C138.048 58.6507 130.552 58.4799 122 59M40 58L28 81C32.6356 77.1797 40.8936 64.1188 40 58z"/>
<path style="fill:#fadd61; stroke:none;" d="M183 58L184 59L183 58M39 59L40 60L39 59M109 144C115.693 138.414 115 131.015 115 123L115 81C115 73.5044 111.928 60.7683 122 60C111.269 55.6301 114 71.9265 114 78C114 98.4025 118.955 125.845 109 144M128 59L128 60C131.882 61.1776 132.699 63.0481 133 67C134.831 62.4599 132.559 59.7271 128 59M184 59L185 60L184 59M38 60L39 61L38 60z"/>
<path style="fill:#f4cd2c; stroke:none;" d="M112 60L113 64L114 64L112 60z"/>
<path style="fill:#feef9e; stroke:none;" d="M95 148L95 149L113 144L116.556 134L116 61C124.466 61 130.46 59.6422 133 69C135.292 59.4149 118.969 55.4776 115.603 62.3179C113.514 66.5639 115 74.3467 115 79C115 99.2805 124.842 147.381 95 148z"/>
<path style="fill:#fadd61; stroke:none;" d="M185.333 60.6667L185.667 61.3333L185.333 60.6667z"/>
<path style="fill:#fefdf0; stroke:none;" d="M116 61L116.301 133L113 144C106.443 146.269 101.177 150.171 94 147.945C73.3978 141.557 81.5839 112.722 102 115L102 99C95.0276 99.1439 87.2441 100.031 81.2855 103.954C59.9331 118.012 60.8174 152.328 86.0008 161.934C95.1182 165.412 115.397 167.143 119 155C125.24 154.697 128.752 146.423 130.171 141C134.176 125.688 128.533 108.918 133 94L134 94L137 95C141.383 101.808 151.679 102.074 159 103L157.972 88.564L141.289 79.8704L130.412 62.0278L116 61z"/>
<path style="fill:#f4cd2c; stroke:none;" d="M176 61L176 63L178 63L176 61z"/>
<path style="fill:#fadd61; stroke:none;" d="M37 62L38 63L37 62M186 62L187 63L186 62M36 63L37 64L36 63M187 63L188 64L187 63z"/>
<path style="fill:#f4cd2c; stroke:none;" d="M140 64L139 66L141 66L140 64z"/>
<path style="fill:#fadd61; stroke:none;" d="M35 65L36 66L35 65z"/>
<path style="fill:#feef9e; stroke:none;" d="M121 65L121 127L122 127L122 85L121 65z"/>
<path style="fill:#fadd61; stroke:none;" d="M188 65L189 66L188 65M34 67L35 68L34 67M189 67L190 68L189 67M33 68L34 69L33 68z"/>
<path style="fill:#feef9e; stroke:none;" d="M128 68L129 72L130 72L128 68z"/>
<path style="fill:#fadd61; stroke:none;" d="M134 68L135 72L136 72L134 68M190 68L192 71L190 68M32.3333 69.6667L32.6667 70.3333L32.3333 69.6667z"/>
<path style="fill:#feef9e; stroke:none;" d="M134 70L135 71L134 70z"/>
<path style="fill:#f4cd2c; stroke:none;" d="M136 71C138.961 77.459 144.193 81.9967 151 84L151 83L136 71z"/>
<path style="fill:#fadd61; stroke:none;" d="M31 72L32 73L31 72z"/>
<path style="fill:#feef9e; stroke:none;" d="M135 72L136 73L135 72z"/>
<path style="fill:#fadd61; stroke:none;" d="M192 72L193 73L192 72M136 73L141 78L136 73M30 74L31 75L30 74z"/>
<path style="fill:#feef9e; stroke:none;" d="M136 74L137 75L136 74z"/>
<path style="fill:#fadd61; stroke:none;" d="M193.333 74.6667L193.667 75.3333L193.333 74.6667z"/>
<path style="fill:#feef9e; stroke:none;" d="M137 75L138 76L137 75z"/>
<path style="fill:#fadd61; stroke:none;" d="M29 76L30 77L29 76z"/>
<path style="fill:#feef9e; stroke:none;" d="M138 76L139 77L138 76z"/>
<path style="fill:#fadd61; stroke:none;" d="M194.333 76.6667L194.667 77.3333L194.333 76.6667z"/>
<path style="fill:#feef9e; stroke:none;" d="M139 77L140 78L139 77z"/>
<path style="fill:#fadd61; stroke:none;" d="M28 78L29 79L28 78z"/>
<path style="fill:#feef9e; stroke:none;" d="M140 78C142.425 82.8648 146.887 84.7217 152 86L152 85L140 78z"/>
<path style="fill:#fadd61; stroke:none;" d="M195.333 78.6667L195.667 79.3333L195.333 78.6667M141 79L142 80L141 79M27 80L26 86L27 86L27 80M143 80L144 81L143 80M196 80L197 86L198 86L196 80M144 81L145 82L144 81z"/>
<path style="fill:#feef9e; stroke:none;" d="M138.333 82.6667L138.667 83.3333L138.333 82.6667z"/>
<path style="fill:#fadd61; stroke:none;" d="M146 82L147 83L146 82z"/>
<path style="fill:#f4cd2c; stroke:none;" d="M27 83C22.2646 103.469 22.7457 120.388 27 141L28 141L24.0394 102L27 83z"/>
<path style="fill:#fadd61; stroke:none;" d="M148 83L149 84L148 83M150 84L150 85L159 88L160 88L150 84z"/>
<path style="fill:#f4cd2c; stroke:none;" d="M152.667 84.3333L153.333 84.6667L152.667 84.3333M196 84L199 97L200 97L196 84M159 85L160 86L159 85z"/>
<path style="fill:#feef9e; stroke:none;" d="M154 86L154 87L159 88L154 86M136 87L137 88L136 87z"/>
<path style="fill:#f4cd2c; stroke:none;" d="M160 87L160 104L151 104L151 105C161.511 104.992 164.031 96.6057 160 87z"/>
<path style="fill:#fadd61; stroke:none;" d="M25 88L26 89L25 88z"/>
<path style="fill:#feef9e; stroke:none;" d="M159 88L159 103C151.038 101.517 142.966 101.134 137 95L136 95C137.811 100.221 153.386 106.707 158.386 102.961C161.477 100.646 160.26 91.003 159 88z"/>
<path style="fill:#fadd61; stroke:none;" d="M198.333 88.6667L198.667 89.3333L198.333 88.6667M24.3333 90.6667L24.6667 91.3333L24.3333 90.6667M199 90L199 95L200 95L199 90z"/>
<path style="fill:#feef9e; stroke:none;" d="M130 92L131 93L130 92M133 94L131 98L132 98L135 95L133 94M128 95L129 96L128 95z"/>
<path style="fill:#f4cd2c; stroke:none;" d="M97 96L97 97L104 98L97 96z"/>
<path style="fill:#fadd61; stroke:none;" d="M132 96L132 139L133 139C133 126.781 136.71 107.226 132 96z"/>
<path style="fill:#f4cd2c; stroke:none;" d="M133 96L133 104L134 104L134 98L145 103L145 102L133 96z"/>
<path style="fill:#fadd61; stroke:none;" d="M134.667 96.3333L135.333 96.6667L134.667 96.3333M200 96L201 123L202 123C202 114.976 204.228 103.059 200 96z"/>
<path style="fill:#f4cd2c; stroke:none;" d="M93 97L93 98L96 98L93 97z"/>
<path style="fill:#fadd61; stroke:none;" d="M96 97L96 98C105.434 98.7197 103 108.846 103 116C106.254 108.244 105.686 97.1148 96 97z"/>
<path style="fill:#feef9e; stroke:none;" d="M152 97L152 98L156 99L152 97z"/>
<path style="fill:#f4cd2c; stroke:none;" d="M68 115L69 115C74.39 106.917 81.4213 101.276 91 99C82.4123 96.4676 70.0686 107.126 68 115z"/>
<path style="fill:#fadd61; stroke:none;" d="M91 98L91 99L94 99L91 98z"/>
<path style="fill:#feef9e; stroke:none;" d="M90 99L90 100L102 99L90 99z"/>
<path style="fill:#fadd61; stroke:none;" d="M137 98L138 99L137 98M159 98L160 99L159 98M22 99L23 128L24 128L22 99M88.6667 99.3333L89.3333 99.6667L88.6667 99.3333z"/>
<path style="fill:#feef9e; stroke:none;" d="M102 99L102 115C93.635 113.188 86.3319 117.196 83 125L84 125C89.2106 118.222 94.4594 115.499 103 116L102 99z"/>
<path style="fill:#fadd61; stroke:none;" d="M139.667 99.3333L140.333 99.6667L139.667 99.3333z"/>
<path style="fill:#f4cd2c; stroke:none;" d="M200 99L196 142L197 142C198.667 129.09 205.359 111.77 200 99z"/>
<path style="fill:#fadd61; stroke:none;" d="M85 100L86 101L85 100z"/>
<path style="fill:#feef9e; stroke:none;" d="M80 103L80 104L89 101L80 103z"/>
<path style="fill:#f4cd2c; stroke:none;" d="M104 100L104 116L105 116L104 100z"/>
<path style="fill:#fadd61; stroke:none;" d="M141 100L142 101L141 100M83 101L84 102L83 101M143.667 101.333L144.333 101.667L143.667 101.333M81 102L82 103L81 102z"/>
<path style="fill:#feef9e; stroke:none;" d="M128.333 102.667L128.667 103.333L128.333 102.667M131.333 102.667L131.667 103.333L131.333 102.667z"/>
<path style="fill:#fadd61; stroke:none;" d="M145 102L145 103L149 103L145 102z"/>
<path style="fill:#f4cd2c; stroke:none;" d="M147 103L147 104L150 104L147 103z"/>
<path style="fill:#fadd61; stroke:none;" d="M150 103L150 104L154 104L150 103M159 103L160 104L159 103M78 104L72 110L79 105L78 104z"/>
<path style="fill:#feef9e; stroke:none;" d="M79 104L72 112L79 104M97 105L98 106L97 105z"/>
<path style="fill:#f4cd2c; stroke:none;" d="M138 105L139 106L138 105M133 107L133 139L134 139L133 107z"/>
<path style="fill:#feef9e; stroke:none;" d="M79 111L80 112L79 111z"/>
<path style="fill:#fadd61; stroke:none;" d="M70 112L69 114L70 112z"/>
<path style="fill:#feef9e; stroke:none;" d="M71 112L72 113L71 112M70 113C65.0855 123.384 64.5742 131.718 66 143L67 143L66.4676 126L70 113z"/>
<path style="fill:#fadd61; stroke:none;" d="M68 115L66 121L67 121L68 115M99.6667 115.333L100.333 115.667L99.6667 115.333z"/>
<path style="fill:#f4cd2c; stroke:none;" d="M67 116L68 117L67 116z"/>
<path style="fill:#fadd61; stroke:none;" d="M91 117L91 118L95 117L91 117z"/>
<path style="fill:#f4cd2c; stroke:none;" d="M89 144C87.5869 140.169 84.4965 136.143 84.3434 132C83.9592 121.609 95.5709 117.386 104 117C87.7709 110.232 76.3609 133.164 89 144z"/>
<path style="fill:#fadd61; stroke:none;" d="M96 116L97 117L96 116z"/>
<path style="fill:#feef9e; stroke:none;" d="M71 117L72 118L71 117z"/>
<path style="fill:#f4cd2c; stroke:none;" d="M66 118L67 119L66 118z"/>
<path style="fill:#fadd61; stroke:none;" d="M89 118L90 119L89 118z"/>
<path style="fill:#f4cd2c; stroke:none;" d="M65 119L63 137L64 137L65 119z"/>
<path style="fill:#fadd61; stroke:none;" d="M88 119L89 120L88 119M87 120L88 121L87 120M86 121L87 122L86 121M65.3333 122.667L65.6667 123.333L65.3333 122.667M85 122L86 123L85 122M84 124L85 125L84 124z"/>
<path style="fill:#f4cd2c; stroke:none;" d="M98 124L98 126L100 126L100 124L98 124z"/>
<path style="fill:#fadd61; stroke:none;" d="M200 124L200 128L201 128L200 124M64 125L65 142L66 142L64 125z"/>
<path style="fill:#feef9e; stroke:none;" d="M76.3333 125.667L76.6667 126.333L76.3333 125.667z"/>
<path style="fill:#fadd61; stroke:none;" d="M83 125L82 135L83 135L83 125z"/>
<path style="fill:#feef9e; stroke:none;" d="M82.3333 126.667L82.6667 127.333L82.3333 126.667z"/>
<path style="fill:#f4cd2c; stroke:none;" d="M86.6667 127.333L87.3333 127.667L86.6667 127.333z"/>
<path style="fill:#feef9e; stroke:none;" d="M119 127L119 132L120 132L119 127M81 128L81 133L82 133L81 128z"/>
<path style="fill:#f4cd2c; stroke:none;" d="M88 128L89 132L90 132L90 128L88 128z"/>
<path style="fill:#fadd61; stroke:none;" d="M24 130L25 138L26 138L24 130M199 130L198 138L199 138L199 130z"/>
<path style="fill:#feef9e; stroke:none;" d="M71 131L70 137L71 137L71 131z"/>
<path style="fill:#f4cd2c; stroke:none;" d="M113 132L113 136L114 136L113 132z"/>
<path style="fill:#feef9e; stroke:none;" d="M74 135L75 138L76 138L74 135M82 135C83.3284 141.888 87.2052 146.278 94 148L94 147L82 135M131 135L130 143L131 143L131 135z"/>
<path style="fill:#fadd61; stroke:none;" d="M83 136L84 137L83 136z"/>
<path style="fill:#f4cd2c; stroke:none;" d="M112 136C108.388 141.02 105.487 145.277 99 146L99 147C104.646 146.695 113.608 142.991 112 136z"/>
<path style="fill:#fefdf0; stroke:none;" d="M224 136C220.628 174.666 177.602 219.271 139 224L139 225L225 225L225 163L224 136z"/>
<path style="fill:#fadd61; stroke:none;" d="M26 138L26 141L27 141L26 138M84.3333 138.667L84.6667 139.333L84.3333 138.667M197 138L197 142L198 142L197 138z"/>
<path style="fill:#f4cd2c; stroke:none;" d="M64 139L64 142L65 142L64 139M132 139L128 150C131.222 147.167 133.305 143.299 132 139z"/>
<path style="fill:#fadd61; stroke:none;" d="M85 140L86 141L85 140z"/>
<path style="fill:#feef9e; stroke:none;" d="M119 140L120 141L119 140z"/>
<path style="fill:#fadd61; stroke:none;" d="M131.333 140.667L131.667 141.333L131.333 140.667z"/>
<path style="fill:#fefdf0; stroke:none;" d="M0 141L0 225L85 225L85 224C54.7248 220.124 26.6961 192.942 11.9221 168C6.97651 159.651 5.66528 148.573 0 141z"/>
<path style="fill:#fadd61; stroke:none;" d="M27 141L30 151L31 151L27 141z"/>
<path style="fill:#feef9e; stroke:none;" d="M80 141L81 142L80 141M124.333 141.667L124.667 142.333L124.333 141.667z"/>
<path style="fill:#f4cd2c; stroke:none;" d="M65.3333 142.667L65.6667 143.333L65.3333 142.667z"/>
<path style="fill:#fadd61; stroke:none;" d="M86 142L87 143L86 142M196 142L192 152L193 152L196 142z"/>
<path style="fill:#f4cd2c; stroke:none;" d="M28 143L29 144L28 143z"/>
<path style="fill:#fadd61; stroke:none;" d="M66 143L68 148L69 148L66 143M130.333 143.667L130.667 144.333L130.333 143.667z"/>
<path style="fill:#f4cd2c; stroke:none;" d="M195 143L196 144L195 143z"/>
<path style="fill:#feef9e; stroke:none;" d="M67 144L68 145L67 144z"/>
<path style="fill:#fadd61; stroke:none;" d="M89 144L91 146L89 144z"/>
<path style="fill:#f4cd2c; stroke:none;" d="M90 144L90 145L98 148L90 144z"/>
<path style="fill:#fadd61; stroke:none;" d="M107 144L108 145L107 144z"/>
<path style="fill:#feef9e; stroke:none;" d="M119 146L122 144L119 146M129 144C126.717 148.114 124.075 154.278 119 155L117 160C121.855 156.762 130.064 150.546 129 144z"/>
<path style="fill:#f4cd2c; stroke:none;" d="M194 144L192 151L193 151L194 144M29 145L31 152L32 152L29 145M66.3333 145.667L66.6667 146.333L66.3333 145.667z"/>
<path style="fill:#feef9e; stroke:none;" d="M68.3333 145.667L68.6667 146.333L68.3333 145.667z"/>
<path style="fill:#fadd61; stroke:none;" d="M106 145L107 146L106 145M92.6667 146.333L93.3333 146.667L92.6667 146.333M104.667 146.333L105.333 146.667L104.667 146.333M129 146L130 147L129 146z"/>
<path style="fill:#f4cd2c; stroke:none;" d="M67 147L70 151L67 147z"/>
<path style="fill:#feef9e; stroke:none;" d="M69 147C73.2374 157.937 84.5937 164.479 96 165L96 164C83.068 162.871 77.7878 155.025 69 147M77 147L80 151L80 147L77 147z"/>
<path style="fill:#fadd61; stroke:none;" d="M94 147L94 148L97 148L94 147M98 147L98 148L102 148L98 147z"/>
<path style="fill:#feef9e; stroke:none;" d="M123 148L124 149L123 148z"/>
<path style="fill:#fadd61; stroke:none;" d="M128 148L129 149L128 148M69 149L70 150L69 149z"/>
<path style="fill:#feef9e; stroke:none;" d="M110.667 149.333L111.333 149.667L110.667 149.333z"/>
<path style="fill:#fadd61; stroke:none;" d="M70.3333 150.667L70.6667 151.333L70.3333 150.667M127 150L124 154L127 150z"/>
<path style="fill:#feef9e; stroke:none;" d="M90 151L90 152L93 152L90 151z"/>
<path style="fill:#f4cd2c; stroke:none;" d="M127 151L128 152L127 151M191 151L176 174C181.291 170.103 192.632 158.071 191 151M32 152L43 168L32 152M71 152L80 161L80 160L71 152z"/>
<path style="fill:#feef9e; stroke:none;" d="M115 152L116 153L115 152z"/>
<path style="fill:#f4cd2c; stroke:none;" d="M126 152L127 153L126 152z"/>
<path style="fill:#fadd61; stroke:none;" d="M72 153L73 154L72 153z"/>
<path style="fill:#f4cd2c; stroke:none;" d="M125 153C116.139 163.128 105.965 166 93 166L93 167C101.492 167 125.331 165.818 125 153z"/>
<path style="fill:#fadd61; stroke:none;" d="M32 154L34 157L32 154M73 154L74 155L73 154z"/>
<path style="fill:#f4cd2c; stroke:none;" d="M132 154L132 156L134 154L132 154z"/>
<path style="fill:#fadd61; stroke:none;" d="M191 154L192 155L191 154M74 155L75 156L74 155z"/>
<path style="fill:#feef9e; stroke:none;" d="M114 155L114 157L116 155L114 155z"/>
<path style="fill:#fadd61; stroke:none;" d="M123 155L124 156L123 155M190.333 155.667L190.667 156.333L190.333 155.667M75 156L76 157L75 156z"/>
<path style="fill:#feef9e; stroke:none;" d="M110.333 156.667L110.667 157.333L110.333 156.667z"/>
<path style="fill:#fadd61; stroke:none;" d="M121 156L122 157L121 156M34 157L36 160L34 157M76 157L77 158L76 157M120 157L121 158L120 157M189 157L188 160L189 157M77 158L78 159L77 158M119 158L120 159L119 158M78 159L79 160L78 159M118 159L119 160L118 159M36.3333 160.667L36.6667 161.333L36.3333 160.667z"/>
<path style="fill:#f4cd2c; stroke:none;" d="M43 160L44 161L43 160z"/>
<path style="fill:#feef9e; stroke:none;" d="M115 160L116 161L115 160z"/>
<path style="fill:#fadd61; stroke:none;" d="M116 160L117 161L116 160M187.333 160.667L187.667 161.333L187.333 160.667z"/>
<path style="fill:#f4cd2c; stroke:none;" d="M80 161L80 162L88 165L88 164L80 161z"/>
<path style="fill:#fadd61; stroke:none;" d="M82 161L83 162L82 161z"/>
<path style="fill:#feef9e; stroke:none;" d="M103 164L103 165L114 162L103 164z"/>
<path style="fill:#fadd61; stroke:none;" d="M114.667 161.333L115.333 161.667L114.667 161.333M37 162L38 163L37 162M84 162L85 163L84 162M112.667 162.333L113.333 162.667L112.667 162.333z"/>
<path style="fill:#f4cd2c; stroke:none;" d="M123 163L123 164L128 162L123 163z"/>
<path style="fill:#fadd61; stroke:none;" d="M186 162L187 163L186 162M38.3333 163.667L38.6667 164.333L38.3333 163.667M85 163L85 164L88 164L85 163M110.667 163.333L111.333 163.667L110.667 163.333M185 163L184 166L185 163M88 164L88 165L91 165L88 164M106 164L106 165L109 165L106 164M39 165L40 166L39 165z"/>
<path style="fill:#f4cd2c; stroke:none;" d="M81 165L82 166L81 165M89 165L89 166L92 167L89 165z"/>
<path style="fill:#fadd61; stroke:none;" d="M92 165L92 166L106 166L92 165M40 166L40 168L42 168L40 166M183 166L184 167L183 166M182 167L183 168L182 167M42 168C44.9368 174.936 50.7041 180.062 57 184L42 168M181.333 168.667L181.667 169.333L181.333 168.667z"/>
<path style="fill:#f4cd2c; stroke:none;" d="M43 169L48 174L43 169z"/>
<path style="fill:#fadd61; stroke:none;" d="M180 170L181 171L180 170M179 171L180 172L179 171M178 172L179 173L178 172M177 173C165.713 185.942 149.854 195.512 133 199L133 200C145.72 198.891 158.263 191.597 168 183.69C171.286 181.021 177.097 177.529 177 173z"/>
<path style="fill:#f4cd2c; stroke:none;" d="M48.6667 175.333L49.3333 175.667L48.6667 175.333M175 175L176 176L175 175M50 176L53 179L50 176M170 180L174 176L170 180M53 179L54 180L53 179M54 180L55 181L54 180M169 180L170 181L169 180M55 181L56 182L55 181M168 181L169 182L168 181M56 182L56 183L80 196L80 195L56 182M165 184L168 182L165 184z"/>
<path style="fill:#fadd61; stroke:none;" d="M58 184L59 185L58 184z"/>
<path style="fill:#f4cd2c; stroke:none;" d="M162 186L165 184L162 186z"/>
<path style="fill:#fadd61; stroke:none;" d="M59 185L60 186L59 185M60.6667 186.333L61.3333 186.667L60.6667 186.333z"/>
<path style="fill:#f4cd2c; stroke:none;" d="M154 191L162 186L154 191z"/>
<path style="fill:#fadd61; stroke:none;" d="M62 187L63 188L62 187M63.6667 188.333L64.3333 188.667L63.6667 188.333M65 189L66 190L65 189M66.6667 190.333L67.3333 190.667L66.6667 190.333M68 191L69 192L68 191z"/>
<path style="fill:#f4cd2c; stroke:none;" d="M152.667 191.333L153.333 191.667L152.667 191.333z"/>
<path style="fill:#fadd61; stroke:none;" d="M71 192L72 193L71 192z"/>
<path style="fill:#f4cd2c; stroke:none;" d="M146 195L152 193L146 195z"/>
<path style="fill:#fadd61; stroke:none;" d="M72 193L72 194L76 195L76 194L72 193M76 195L76 196L90 200L90 199L76 195z"/>
<path style="fill:#f4cd2c; stroke:none;" d="M144.667 195.333L145.333 195.667L144.667 195.333M81 196L81 197L84 197L81 196M142 196L143 197L142 196M84 197L84 198L88 198L84 197M137 197L137 198L140 198L137 197M88.6667 198.333L89.3333 198.667L88.6667 198.333M133 198L133 199L136 199L133 198M90 199L90 200L97 201L90 199M130 199L130 200L133 200L130 199z"/>
<path style="fill:#fadd61; stroke:none;" d="M91 200L91 201L96 201L91 200z"/>
<path style="fill:#f4cd2c; stroke:none;" d="M126.667 200.333L127.333 200.667L126.667 200.333z"/>
<path style="fill:#fadd61; stroke:none;" d="M123 201L123 202L132 201L123 201M96 201L96 202L101 202L96 201z"/>
<path style="fill:#f4cd2c; stroke:none;" d="M101 201L101 202L113 202L101 201M115 201L115 202L123 202L115 201z"/>
<path style="fill:#fadd61; stroke:none;" d="M102 202L102 203L116 203L102 202z"/>
</svg>
