<?xml version="1.0" standalone="no"?>
<!DOCTYPE svg PUBLIC "-//W3C//DTD SVG 20010904//EN"
 "http://www.w3.org/TR/2001/REC-SVG-20010904/DTD/svg10.dtd">
<svg version="1.0" xmlns="http://www.w3.org/2000/svg"
 width="1920.000000pt" height="1920.000000pt" viewBox="0 0 1920.000000 1920.000000"
 preserveAspectRatio="xMidYMid meet">

<g transform="translate(0.000000,1920.000000) scale(0.100000,-0.100000)"
fill="#000000" stroke="none">
<path d="M9127 15374 c-1378 -115 -2650 -705 -3623 -1678 -462 -463 -811 -950
-1099 -1531 -334 -676 -525 -1375 -586 -2145 -14 -186 -14 -653 0 -840 134
-1707 968 -3223 2331 -4237 1553 -1155 3602 -1454 5429 -791 1272 462 2362
1376 3038 2548 341 591 575 1236 692 1910 97 552 108 1224 30 1779 -250 1790
-1302 3346 -2865 4241 -759 434 -1583 683 -2484 750 -185 14 -671 10 -863 -6z
m1836 -2446 c99 -177 128 -226 194 -326 289 -438 654 -751 1060 -913 97 -38
265 -82 406 -105 60 -9 111 -23 113 -29 6 -14 -209 -1112 -219 -1121 -3 -4
-50 1 -104 11 -344 60 -586 136 -848 268 -201 100 -350 203 -520 356 -49 44
-93 81 -97 81 -4 0 -8 -641 -8 -1425 0 -1217 -2 -1443 -15 -1543 -98 -752
-564 -1397 -1251 -1733 -542 -265 -1220 -293 -1778 -75 -539 211 -955 591
-1210 1106 -157 317 -230 630 -229 990 0 262 31 462 108 695 243 739 833 1291
1581 1481 222 56 332 67 669 68 l300 1 2 -587 3 -588 -221 0 c-121 0 -263 -5
-316 -11 -245 -27 -457 -129 -636 -306 -459 -455 -406 -1210 112 -1604 86 -65
264 -151 369 -179 589 -153 1189 219 1313 815 18 86 19 184 19 2403 l0 2312
590 0 589 0 24 -42z"/>
</g>
</svg>
